<svg width="80" height="80" viewBox="0 0 80 80" fill="none" xmlns="http://www.w3.org/2000/svg">
<circle cx="40" cy="40" r="37.5" stroke="#D05B5B" stroke-width="5"/>
<path d="M32.2305 25.6543V57H26.043V32.7871L18.6094 35.1504V30.2734L31.5645 25.6543H32.2305ZM45.0369 52.2949H45.4451C47.1638 52.2949 48.6391 52.0872 49.8709 51.6719C51.117 51.2422 52.141 50.6263 52.9431 49.8242C53.7452 49.0221 54.3396 48.041 54.7263 46.8809C55.113 45.7064 55.3064 44.3743 55.3064 42.8848V36.9551C55.3064 35.8236 55.1918 34.8281 54.9627 33.9688C54.7478 33.1094 54.4327 32.4004 54.0173 31.8418C53.6163 31.2689 53.1436 30.8392 52.5994 30.5527C52.0694 30.2663 51.4822 30.123 50.8377 30.123C50.1502 30.123 49.5414 30.2949 49.0115 30.6387C48.4815 30.9681 48.0304 31.4193 47.658 31.9922C47.2999 32.5651 47.0206 33.224 46.8201 33.9688C46.6339 34.6992 46.5408 35.4655 46.5408 36.2676C46.5408 37.0697 46.6339 37.8359 46.8201 38.5664C47.0063 39.2826 47.2856 39.9199 47.658 40.4785C48.0304 41.0228 48.4959 41.4596 49.0545 41.7891C49.613 42.1042 50.2719 42.2617 51.031 42.2617C51.7615 42.2617 52.4132 42.1257 52.9861 41.8535C53.5733 41.5671 54.0675 41.1947 54.4685 40.7363C54.8839 40.278 55.199 39.7695 55.4138 39.2109C55.643 38.6523 55.7576 38.0866 55.7576 37.5137L57.7986 38.6309C57.7986 39.6335 57.5837 40.6217 57.1541 41.5957C56.7244 42.5697 56.1228 43.4577 55.3494 44.2598C54.5903 45.0475 53.7094 45.6777 52.7068 46.1504C51.7042 46.623 50.63 46.8594 49.4841 46.8594C48.0232 46.8594 46.727 46.5944 45.5955 46.0645C44.464 45.5202 43.5043 44.7754 42.7166 43.8301C41.9431 42.8704 41.3559 41.7533 40.9548 40.4785C40.5538 39.2038 40.3533 37.8216 40.3533 36.332C40.3533 34.8138 40.5968 33.3887 41.0837 32.0566C41.5851 30.7246 42.294 29.5501 43.2107 28.5332C44.1417 27.5163 45.2517 26.7214 46.5408 26.1484C47.8442 25.5612 49.2908 25.2676 50.8806 25.2676C52.4705 25.2676 53.9171 25.5755 55.2205 26.1914C56.5239 26.8073 57.641 27.681 58.572 28.8125C59.503 29.9297 60.2192 31.2689 60.7205 32.8301C61.2361 34.3913 61.4939 36.1243 61.4939 38.0293V40.1777C61.4939 42.2116 61.2719 44.1022 60.8279 45.8496C60.3982 47.597 59.7465 49.1797 58.8728 50.5977C58.0134 52.0013 56.9392 53.2044 55.6502 54.207C54.3754 55.2096 52.893 55.9759 51.2029 56.5059C49.5128 57.0358 47.6222 57.3008 45.531 57.3008H45.0369V52.2949Z" fill="white"/>
</svg>
